<?xml version="1.0" encoding="UTF-8"?>
<svg id="Laag_2" data-name="Laag 2" xmlns="http://www.w3.org/2000/svg" viewBox="0 0 387.1 448.5">
  <defs>
    <style>
      .cls-1 {
        fill: #fff;
      }
    </style>
  </defs>
  <g id="svg">
    <g>
      <path class="cls-1" d="M.7,286v162.5s211.8-162.4,212.1-162.5H.7Z"/>
      <g>
        <path class="cls-1" d="M0,121C0,48.9,55.3,0,120.5,0c70.1,0,101.1,44.7,108.7,77.9l-49.1,15.3c-3.6-16-18.4-43-59.6-43-31.3,0-66.5,22.2-66.5,70.8,0,43.4,32.3,68.5,67.2,68.5,40.5,0,56.6-26.7,61.2-43.4l49.7,14c-7.6,32-38.5,80.9-111,80.9C54,240.9,0,193,0,121Z"/>
        <path class="cls-1" d="M295.3,182.6c.7,11.1,8.6,21.8,25.7,21.8,12.8,0,19.1-6.8,19.1-14,0-5.9-4-10.8-16.1-13.4l-18.8-4.2c-34.9-7.5-48.7-27.1-48.7-49.9,0-29.7,26.3-53.8,62.9-53.8,47.4,0,63.9,29.3,65.5,48.3l-41.5,7.5c-1.3-10.8-8.2-19.9-23.4-19.9-9.5,0-17.8,5.5-17.8,14,0,6.8,5.6,10.8,12.8,12.1l21.7,4.2c33.9,6.8,50.4,27.1,50.4,50.9,0,27.7-21.4,54.8-65.2,54.8-51.4,0-67.8-32.9-69.2-50.9l42.6-7.5Z"/>
      </g>
    </g>
  </g>
</svg>