<svg width="796" height="232" viewBox="0 0 796 232" fill="none" xmlns="http://www.w3.org/2000/svg">
<path d="M271.979 39.1169C271.979 17.5132 289.492 0 311.095 0H756.308C777.912 0 795.425 17.5132 795.425 39.1169V192.497C795.425 214.1 777.912 231.613 756.308 231.613H311.095C289.492 231.613 271.979 214.1 271.979 192.497V39.1169Z" fill="#FEAF54"/>
<path d="M681.533 172.732C669.322 172.732 657.78 169.052 651.424 164.87L649.751 142.957L651.424 142.623C658.617 158.681 670.661 169.889 685.548 170.056C695.919 170.223 702.61 163.365 702.61 155.67C702.61 144.964 694.079 140.783 679.526 136.266C661.962 130.913 651.089 126.062 651.089 111.007C651.089 98.2943 660.959 86.585 683.708 86.585C693.243 86.585 703.447 88.425 709.134 90.7669L709.971 109.167L707.963 109.502C702.276 97.6252 691.905 88.9268 679.693 88.9268C669.155 88.9268 662.297 94.447 662.297 101.64C662.297 111.007 670.661 115.022 685.715 120.04C699.098 124.557 713.818 128.571 713.818 145.634C713.818 158.347 705.789 172.732 681.533 172.732Z" fill="#383A42"/>
<path d="M593.134 173.067C571.388 173.067 548.471 160.187 548.471 131.75C548.471 104.651 570.217 86.585 593.134 86.585C613.876 86.585 637.629 98.7961 637.629 128.237C637.629 156.841 612.872 173.067 593.134 173.067ZM598.988 169.387C615.381 169.387 620.734 155.168 620.734 140.95C620.734 119.706 606.181 87.7559 584.602 89.9305C570.049 91.436 565.198 104.818 565.198 119.204C565.198 138.942 576.908 169.387 598.988 169.387Z" fill="#383A42"/>
<path d="M487.557 173.401C466.313 173.067 451.927 153.495 451.927 132.753C451.927 107.16 469.491 86.7521 498.597 86.7521C505.623 86.7521 511.478 88.4249 516.496 90.934V61.4934C516.496 51.6241 513.987 49.9513 509.805 48.1113V45.7694L531.885 36.0674L533.558 37.4056V150.15C533.558 162.194 534.729 167.212 540.249 169.052V171.394H523.187C518.838 171.394 516.496 169.052 516.496 164.703V157.677C510.139 165.037 500.103 173.736 487.557 173.401ZM468.32 119.204C468.32 135.095 473.84 163.365 497.928 163.365C505.288 163.365 511.645 159.35 516.496 154.165V117.196C516.496 104.818 505.623 90.2649 491.572 90.2649C473.171 90.2649 468.32 105.989 468.32 119.204Z" fill="#383A42"/>
<path d="M384.123 171.394V169.052C389.643 167.212 390.814 162.194 390.814 150.15V111.676C390.814 101.807 388.304 100.134 384.123 98.2944V95.9525L406.203 86.2505L407.876 87.5887V107.829C410.385 101.974 414.734 96.7889 420.087 93.1088C426.276 88.7596 432.633 86.585 440.662 86.585C446.349 86.585 451.368 88.0905 451.368 91.6033C451.368 95.2834 447.688 102.476 439.993 102.476C435.309 102.476 428.953 100.804 418.247 97.458C414.065 100.971 408.378 108.498 407.876 116.862V150.15C407.876 162.194 409.047 167.212 414.567 169.052V171.394H384.123Z" fill="#383A42"/>
<path d="M334.914 173.067C316.346 173.067 295.269 159.852 295.269 132.753C295.269 104.316 317.517 86.585 339.263 86.585C361.845 86.585 373.889 102.142 373.889 116.695H310.491L310.157 122.048C310.157 143.961 323.539 159.517 344.783 159.517C357.161 159.517 366.696 154.165 373.722 146.303L375.227 147.975C367.532 159.685 354.318 173.067 334.914 173.067ZM310.658 114.353H356.994C354.819 100.636 345.619 89.7632 334.077 89.5959C319.859 89.4287 312.666 101.305 310.658 114.353Z" fill="#383A42"/>
<path d="M222.743 171.394V169.219C227.928 167.714 229.434 163.867 229.434 150.15V111.676C229.434 99.9669 227.426 98.2942 222.743 96.2868V94.4468L241.143 86.4175L242.481 87.5885V150.15C242.481 163.867 244.154 167.714 249.172 169.219V171.394H222.743ZM234.954 76.2137C229.768 76.2137 225.754 72.0318 225.754 67.0135C225.754 61.6606 229.768 57.646 234.954 57.646C240.307 57.646 244.154 61.6606 244.154 67.0135C244.154 72.0318 240.139 76.2137 234.954 76.2137Z" fill="#383A42"/>
<path d="M184.051 171.394V169.219C189.069 167.714 190.742 163.866 190.742 150.15V61.4931C190.742 49.7838 188.567 48.111 184.051 46.1037V44.2636L202.284 36.2344L203.789 37.4053V150.15C203.789 163.866 205.295 167.714 210.48 169.219V171.394H184.051Z" fill="#383A42"/>
<path d="M128.549 173.067C107.305 173.067 84.7227 159.852 84.7227 130.746C84.7227 104.651 105.632 86.585 128.549 86.585C149.291 86.585 172.208 99.298 172.208 129.073C172.208 157.677 148.288 173.067 128.549 173.067ZM133.567 169.554C151.466 169.554 159.495 155.168 159.495 138.942C159.495 117.364 144.273 88.5923 122.36 89.7632C105.298 90.4323 97.6029 104.484 97.6029 121.211C97.6029 142.455 111.32 169.554 133.567 169.554Z" fill="#383A42"/>
<path d="M0 171.394V169.219C5.01829 167.714 6.69106 163.866 6.69106 150.15V75.5444C6.69106 61.8277 5.01829 57.9804 0 56.4749V54.3003H33.9571C68.5833 54.3003 79.6236 71.0279 79.6236 87.2537C79.6236 109.502 63.3977 125.058 32.2843 125.058H20.4077V150.15C20.4077 163.866 21.9132 167.714 27.0988 169.219V171.394H0ZM31.9498 122.549C53.3612 122.549 64.9032 110.84 64.9032 91.1011C64.9032 73.2025 54.3648 56.8094 27.4333 56.8094C25.0915 56.8094 22.415 56.9767 20.4077 57.144V122.549H31.9498Z" fill="#383A42"/>
<path d="M586.973 123.784C586.973 131.033 581.097 136.909 573.848 136.909C566.599 136.909 560.723 131.033 560.723 123.784C560.723 116.536 566.599 110.66 573.848 110.66C581.097 110.66 586.973 116.536 586.973 123.784Z" fill="#383A42"/>
<path d="M621.458 123.784C621.458 131.033 615.581 136.909 608.333 136.909C601.084 136.909 595.208 131.033 595.208 123.784C595.208 116.536 601.084 110.66 608.333 110.66C615.581 110.66 621.458 116.536 621.458 123.784Z" fill="#383A42"/>
<path d="M125.513 87.4985L139.633 101.618L125.513 115.738L111.393 101.618L125.513 87.4985Z" fill="#383A42"/>
<path d="M145.62 168.563L136.613 170.622L124.389 171.651L113.452 164.188L120.018 113.846L125.513 119.341L132.253 112.601L145.62 168.563Z" fill="#383A42"/>
</svg>
