<?xml version="1.0" encoding="UTF-8"?>
<svg id="Laag_1" xmlns="http://www.w3.org/2000/svg" version="1.1" viewBox="0 0 922.3 162.9">
  <!-- Generator: Adobe Illustrator 29.8.2, SVG Export Plug-In . SVG Version: 2.1.1 Build 3)  -->
  <defs>
    <style>
      .st0 {
        fill: #f4f8f5;
      }
    </style>
  </defs>
  <path class="st0" d="M0,159.2C0,106.1,0,53.1,0,0,18.5,0,37,0,55.5,0c11.4.1,23.1-.9,34.1,2.8,10.4,2.9,20,9.4,25.6,18.8,6.7,11.2,8.2,24.8,6.8,37.5-1.2,11.1-5.6,22.2-14,29.7-9.4,8.4-22.1,12.2-34.5,12.7-11,.5-21.9.2-32.9.2-.2,19.2,0,38.3,0,57.5-13.5,0-27,.3-40.4,0ZM40.5,32.8c-.2,12,0,24,0,36.1,9.6-.3,19.4.8,28.9-1.1,5.5-1.1,10.5-5,11.9-10.5,1.3-5.1,1.1-10.8-1.2-15.7-2.4-4.7-7.5-7.3-12.6-8-9-1.2-18-.6-27-.8ZM331.8,0C343.7,0,355.5,0,367.4,0c0,53.1,0,106.1,0,159.2-11.9,0-23.8.1-35.7,0,0-3.7,0-7.3,0-11-7.4,7.9-17.5,13.4-28.3,14.4-11.7,1.1-24.1-1.4-33.5-8.7-11.4-8.2-17.6-21.9-19.9-35.4-2.6-16.1-1.7-33,4.6-48.2,4.9-11.6,14.2-21.5,26.2-25.8,17.3-6.6,38.8-2.5,51,11.9,0-18.8,0-37.6,0-56.4h0ZM303.9,68.8c-4.2.7-8.1,2.8-11.1,5.8-6.7,7-7.9,17.3-8.3,26.6.1,9.3,1.1,19.4,7,27,7.6,10.3,25.4,10.2,32.8-.2,5.7-7.6,6.7-17.5,6.7-26.8-.1-8.6-1.5-17.7-6.7-24.8-4.6-6.3-12.9-9-20.5-7.7ZM175.8,41.9c17.7-1.6,37,2.3,50.2,14.9,10.3,9.3,16.1,22.8,17.6,36.4,2.1,17.2-1.5,35.9-12.8,49.5-10.3,12.5-26.4,19.3-42.5,20-15.3.9-31.4-2.1-43.8-11.5-12.7-9.2-20.2-24.4-21.8-39.8-2-16.6,1.1-34.6,11.6-48.1,9.5-13.1,25.6-20,41.4-21.5ZM179.9,68.7c-5.6.5-10.8,3.4-14.4,7.6-5.8,7.2-7.4,16.9-7.5,26,.2,8.4,1.3,17.2,6.3,24.2,7.9,11.8,27.3,12.5,36.4,1.9,4.6-5.1,6.3-12,7.3-18.6.9-10.9.5-22.8-5.9-32.1-4.9-7-13.9-10.2-22.2-9h0ZM388.9,63.7c9.4-13,24.9-20.7,40.7-21.9,16.6-1.5,34.7,2.4,46.6,14.8,14.5,14.3,18.6,35.6,18.9,55.2-27.4,0-54.8,0-82.1,0,.3,6.2,2.2,12.7,6.9,17.1,5.5,5.8,14,7.6,21.7,6.7,6.8-.4,13.3-4.6,16-10.9,11.9-.3,23.8-.2,35.7,0-3.3,12.8-11.5,24.6-23.2,30.9-11.7,6.5-25.4,7.9-38.5,7-14.9-1-29.8-7.2-39.8-18.5-9.7-10.8-14.2-25.5-14.4-39.9-.4-14.2,3.1-29,11.7-40.5ZM420.1,71.8c-5.1,4.4-6.7,11.5-7.2,18,15.4,0,30.8,0,46.3,0,0-8-3.2-16.6-10.6-20.6-8.9-4.5-20.8-4.1-28.5,2.6h0ZM561.2,44.1c10.9-3.8,23.8-3.8,33.5,2.9,5.4,3.4,8.7,9.1,11.5,14.6,7.2-9,16.7-17,28.3-19.1,11.8-2.2,25.2-1,34.5,7.2,9,7.7,12,20.2,12,31.6,0,26,0,51.9,0,77.9-12,0-24.1.2-36.1,0-.1-23.3.1-46.6-.1-69.9-.3-6.1-1.1-13.9-7.2-17-7.2-2.7-16.7-2.3-22.1,3.8-3.9,4.8-5,11.2-5.1,17.2-.1,22,.1,43.9-.1,65.9-11.9.2-23.7-.2-35.6.2-.1-22.4,0-44.8,0-67.1-.3-5.6-.2-11.8-3.5-16.6-3.4-4.9-10.1-5.3-15.5-4.7-5.6.4-10.8,4.1-13,9.2-2.1,4.4-2.5,9.3-2.5,14.1,0,21.6,0,43.3,0,64.9-11.9.3-23.8,0-35.7,0,0-38.1,0-76.1,0-114.2,11.9,0,23.8-.2,35.8.1,0,5.4,0,10.8,0,16.1,5.2-7.6,12.4-14.1,21.2-17.2h0ZM742.9,42c14.5-1.4,29.9.7,42.5,8.4,13.9,8.1,23,23,25.5,38.7,2.9,17.5.3,36.7-10.3,51.3-9.5,13.1-25.3,20.8-41.2,22.2-15.8,1.5-32.6-1.1-45.7-10.4-12.5-8.6-20.4-22.9-22.7-37.7-2.1-14.3-.7-29.5,5.8-42.6,3.5-6.2,7.7-12.2,13.3-16.7,9.2-7.6,20.9-11.9,32.7-13h0ZM747.8,68.7c-5,.6-10,2.7-13.4,6.6-5.8,6.2-7.9,14.8-8.3,23.1-.5,9.6.5,20,6,28.2,8.2,12.2,28.7,12.6,37.4.8,6.3-8.5,7.1-19.7,6.5-29.9-.7-8.8-3.1-18.6-10.5-24.2-4.9-4.1-11.6-5.1-17.7-4.5h0ZM824.9,56.7c8.9-10,22.6-14,35.6-14.9,14.8-1,30.7.8,43.2,9.4,9.4,6.5,14.5,17.8,15.4,29-11.2,0-22.5,0-33.7,0-.7-4.4-2.3-9-6.4-11.3-7.1-3.7-16.5-3.7-23.4.6-3.8,2.9-3.9,9.8.5,12.2,5.6,2.9,12.1,3.4,18.2,4.9,12.6,2.7,25.8,5.6,36.3,13.7,14.5,11.1,15.3,34.6,4,48.1-9.2,10.4-23.7,13.8-37,14.4-15.9.5-32.9-.8-46.4-10-10.3-6.8-16-19.1-16.4-31.3,11.2-.2,22.4,0,33.6-.1.8,4.7,2.5,9.8,6.6,12.6,5.7,4.1,13,4.5,19.8,4,3.9-.3,8.2-1.6,10.7-4.9,1.8-3.6,1.5-8.8-1.9-11.4-5.3-4.3-12.4-5.1-18.8-6.7-13.2-3-27.5-5.4-38.2-14.6-12.5-10.8-12.3-31.8-1.5-43.7Z"/>
</svg>