<?xml version="1.0" encoding="UTF-8"?>
<svg id="Capa_2" xmlns="http://www.w3.org/2000/svg" version="1.1" viewBox="0 0 361 243.4">
  <!-- Generator: Adobe Illustrator 29.8.2, SVG Export Plug-In . SVG Version: 2.1.1 Build 3)  -->
  <defs>
    <style>
      .st0 {
        fill: #f4f8f5;
      }
    </style>
  </defs>
  <g id="Layer_1">
    <g>
      <path class="st0" d="M55.2,20C76.8,6.6,102.2-.7,127.6,0c18.6-.4,37.3,2.9,54.6,9.6,18.8,7.3,35.9,20,46.8,37.2.7,1.6,2.9,2.9,4.4,1.3,14.1-12.8,31.3-22.5,50-26.6,23.7-5.6,49.3-1.5,70.5,10.3,2.5,1.6,5.7,2.5,7,5.4-.6,1.9-2.2,3.2-4.2,2.7-28.9-3-58.7,2-84.8,14.9-14.4,7-27.7,16.4-39.5,27.2-1,1.2-2.5,1.5-4,1.5-13-19.1-32.5-33.4-54.2-41-17.5-6.3-36.6-7.3-54.7-3.3-25.3,5.3-49.3,19.4-63.7,41.2-14,21.6-18.7,48.5-15.3,73.8,3.2,24,12.9,46.4,18.2,70,.4,2.7,1,6-1,8.1-2.3,1.9-5.5.9-7.9-.3-5.5-3-9.8-7.6-14.3-11.7C14.3,199.6,3.2,170.3.5,141.1c-.9-17.7-1-35.8,3.9-53,7.5-28.1,26.2-52.8,50.8-68.1Z"/>
      <path class="st0" d="M115.5,92.1c13.6-5.7,28.4-7.7,43-8.1,14.3-.5,29.8,2.4,40.7,12.4,11,10.1,15.3,25.4,16.1,39.9,1.1,17-1.9,35.2-12.6,48.9-7.8,9.9-20.1,15.7-32.5,16.4-9.5.6-19-.2-28.3-2.3-.1,13.6,0,27.2,0,40.8.2,1.3-.5,3.3-2.1,3.1-9.1,0-18.2.1-27.2,0-2.8.2-2.6-3.1-2.6-5,0-46.4,0-92.8,0-139.1-.4-3.5,2.7-5.9,5.6-7h0ZM141.9,114.2c0,19.2,0,38.4,0,57.6,6.1,1.5,12.4,2.5,18.7,2.2,6.6-.2,13.2-3.3,16.6-9.1,5.1-8.4,5.3-18.7,4.8-28.3-.6-8-2.9-17.2-10.5-21.5-9.1-4.8-20.1-3.3-29.8-.9h0Z"/>
      <path class="st0" d="M233.8,92.5c10.9-4.8,22.9-7,34.8-8,15.4-1.3,32.2-.7,45.3,8.5,11.6,7.9,17.8,21.7,19.6,35.2,2.5,17.7,1,36.9-8.5,52.4-6.3,10.5-17.2,18-29.3,20.2-11.5,2.1-23.4.9-34.8-1.3v39.8c0,1.5,0,4.2-2.2,4-9.1,0-18.1,0-27.2,0-2.4.3-2.7-2.3-2.6-4,0-46.7,0-93.4,0-140.1-.3-3.2,2.2-5.6,4.9-6.7h0ZM260.9,114.2c0,19.2,0,38.4,0,57.5,6.1,1.5,12.4,2.5,18.7,2.2,6.6-.2,13.3-3.3,16.7-9.1,5.2-8.5,5.4-19,4.8-28.7-.6-8.1-3.2-17.4-11-21.4-9.1-4.4-19.8-3-29.2-.6Z"/>
    </g>
  </g>
</svg>