<?xml version="1.0" encoding="UTF-8"?>
<svg xmlns="http://www.w3.org/2000/svg" xmlns:svg="http://www.w3.org/2000/svg" xmlns:sodipodi="http://sodipodi.sourceforge.net/DTD/sodipodi-0.dtd" xmlns:rdf="http://www.w3.org/1999/02/22-rdf-syntax-ns#" xmlns:inkscape="http://www.inkscape.org/namespaces/inkscape" xmlns:dc="http://purl.org/dc/elements/1.1/" xmlns:cc="http://creativecommons.org/ns#" version="1.1" viewBox="0 0 267.2 267.2">
  <!-- Generator: Adobe Illustrator 29.8.2, SVG Export Plug-In . SVG Version: 2.1.1 Build 3)  -->
  <defs>
    <style>
      .st0 {
        fill: #f4f8f5;
      }
    </style>
  </defs>
  <g id="Capa_1" inkscape:version="0.92.1 r15371" sodipodi:docname="Logotipo_del_PSOE.svg">
    <sodipodi:namedview id="namedview4496" bordercolor="#666666" borderopacity="1" gridtolerance="10" guidetolerance="10" inkscape:current-layer="Capa_1" inkscape:cx="133.91149" inkscape:cy="133.5995" inkscape:pageopacity="0" inkscape:pageshadow="2" inkscape:window-height="1018" inkscape:window-maximized="1" inkscape:window-width="1920" inkscape:window-x="-8" inkscape:window-y="-8" inkscape:zoom="3.1848921" objecttolerance="10" pagecolor="#ffffff" showgrid="false"/>
    <g>
      <path class="st0" d="M0,0v267.2h267.2V0H0ZM46.3,176.1h-6.8v28.5h-18.3v-78.3h26.4c14,0,24.2,6.2,24.2,24.4s-10.5,25.4-25.5,25.4ZM102.2,205.8c-12.2,0-19.3-5-25.8-13.6l12.8-11.5c5.2,6.1,9.4,9.4,13.3,9.4s6.7-2,6.7-6.3-1.3-7-10-10.9c-15.6-6.8-21.3-12.7-21.3-25.1s9.3-22.8,24.3-22.8,18,4.3,24.6,12.4l-13,11.7c-5.4-6.4-7.3-8.4-12.3-8.4s-5.5,2.7-5.5,5.6c0,4.3,2,6.5,9.9,10.1,15.7,6.9,21.6,13.3,21.6,26.4s-10.8,23.1-25.4,23.1ZM161.1,205.8c-17.4,0-27.8-12.6-27.8-40.3s10.6-40.4,28.2-40.4,27.9,12.7,27.9,40.3-10.6,40.5-28.3,40.5ZM245.1,204.6h-46.5v-78.3h45.8v16h-27.3v13.4h17.8v15.8h-17.8v17h28v16Z"/>
      <path class="st0" d="M45.8,141.5h-6.3v19.4h6.2c5.3,0,7.5-2.8,7.5-9.8s-2-9.6-7.4-9.6Z"/>
      <path class="st0" d="M161.3,141.1c-5.9,0-8.7,5.4-8.7,24.2s3,24.3,8.8,24.3,8.7-5.1,8.7-24.1-3-24.4-8.8-24.4Z"/>
    </g>
  </g>
</svg>