<?xml version="1.0" encoding="UTF-8"?>
<svg id="Laag_1" xmlns="http://www.w3.org/2000/svg" version="1.1" viewBox="0 0 365 175.9">
  <!-- Generator: Adobe Illustrator 29.8.2, SVG Export Plug-In . SVG Version: 2.1.1 Build 3)  -->
  <defs>
    <style>
      .st0 {
        fill: #f4f8f5;
      }
    </style>
  </defs>
  <path class="st0" d="M28,52.4c15.6,54.4,15.2,52.9,16.3,55.9.7,2,3.7,4.8,5.8,4.8,3.4,0,6-2.4,8.2-9.8L89.8,11.9C94.1,0,95.9,0,106.1,0s12.2,6.8,10.2,12.9l-47.9,132.2c-2.4,6.8-6.8,10.8-13.3,10.8h-9.5c-5.4,0-11.1-2.3-14.3-11.8L.4,51.2c-1.9-5.4,2.4-9.2,7.8-9.2h6.8c6.5,0,10.9,3.6,12.9,10.4"/>
  <path class="st0" d="M283.3,145.8c-5.1,7.8-8.8,10.1-15,10.1h-9.9c-4.8,0-8.2-3.7-6.5-7.1,1-2,1-1.8,2.4-3.9l28.9-40.9c2.7-3.7,4.4-7.9,4.4-10.9s-1.9-7.2-3.1-8.9l-21.6-30.9c-4.1-5.8-3.4-11.4,3.1-11.4h11.2c5.4,0,9.9,2.9,12.9,8l7.3,12.7c2.7,4.4,6.1,7.2,9.9,7.2s4.7-1.7,8.5-6.1l19-24.7c3.7-4.9,7.8-9.4,15.3-9.4h8.2c7.8,0,7.5,6,5.1,9.4l-32.3,41.6c-3.6,4.9-5.1,8.6-5.1,12s.7,6.2,5.1,12.3l23.5,33c8,11.2,7.1,10.8,7.1,12.9,0,3.1-2.4,5-7.1,5h-10.2c-5.1,0-10-2.8-13.3-8.1l-15-23.9c-3.6-5.6-6.1-7.2-9.2-7.2s-7.1,2.8-9.9,7.2l-13.9,21.9Z"/>
  <path class="st0" d="M179.9,175.9c-49,0-75.7-37-75.7-78S143.3,18.2,179,18.2s76.6,37.9,76.6,78.9c0,45.9-30.3,78.9-75.7,78.9M178.1,151.7c29,0,47.2-21.3,47.2-54.9,0-30.8-17.7-54.4-45.3-54.4s-45.3,18.6-45.3,54,18.1,55.3,43.5,55.3"/>
</svg>